<svg width="920" height="280" viewBox="0 0 920 280" fill="none" xmlns="http://www.w3.org/2000/svg">
  <g fill="#40332A">
    <rect x="16" y="24" width="216" height="216" rx="52" fill-opacity="0.08"/>
    <rect x="62" y="50" width="132" height="156" rx="22"/>
    <path d="M168 50H194V76L168 50Z" fill-opacity="0.22"/>
    <rect x="78" y="38" width="16" height="28" rx="8"/>
    <rect x="120" y="38" width="16" height="28" rx="8"/>
    <rect x="162" y="38" width="16" height="28" rx="8"/>
    <rect x="84" y="86" width="74" height="10" rx="5" fill="#FFF9EE"/>
    <rect x="84" y="106" width="90" height="9" rx="4.5" fill="#FFF9EE" fill-opacity="0.72"/>
    <rect x="84" y="124" width="64" height="9" rx="4.5" fill="#FFF9EE" fill-opacity="0.72"/>
    <rect x="84" y="148" width="80" height="9" rx="4.5" fill="#FFF9EE" fill-opacity="0.56"/>
    <rect x="84" y="166" width="54" height="9" rx="4.5" fill="#FFF9EE" fill-opacity="0.56"/>
    <circle cx="186" cy="152" r="16"/>
    <path d="M196 90L200.5 101.5L212 106L200.5 110.5L196 122L191.5 110.5L180 106L191.5 101.5L196 90Z"/>
    <text x="286" y="118" font-size="78" font-weight="600" letter-spacing="1.5" font-family="'Cormorant Garamond', 'Georgia', 'Times New Roman', serif">AI Daily</text>
    <text x="288" y="174" font-size="34" font-weight="600" letter-spacing="6" font-family="'Noto Serif SC', 'Source Han Serif SC', 'Microsoft YaHei', serif">温暖编辑部</text>
    <text x="288" y="214" font-size="24" letter-spacing="0.4" font-family="'Noto Sans SC', 'Microsoft YaHei', sans-serif">追踪 AI 的每一天，像编辑部一样整理成可读的日报。</text>
    <rect x="288" y="230" width="152" height="4" rx="2"/>
  </g>
  <path d="M181 151.5L185.5 156L192.5 148" stroke="#FFF9EE" stroke-width="4.5" stroke-linecap="round" stroke-linejoin="round"/>
</svg>
