<svg width="256" height="256" viewBox="0 0 256 256" fill="none" xmlns="http://www.w3.org/2000/svg">
  <defs>
    <linearGradient id="bg" x1="32" y1="24" x2="224" y2="232" gradientUnits="userSpaceOnUse">
      <stop stop-color="#FBF2DF"/>
      <stop offset="1" stop-color="#EBCFA7"/>
    </linearGradient>
    <linearGradient id="paper" x1="68" y1="52" x2="188" y2="204" gradientUnits="userSpaceOnUse">
      <stop stop-color="#FFF9EE"/>
      <stop offset="1" stop-color="#F5DFC1"/>
    </linearGradient>
    <linearGradient id="accent" x1="174" y1="84" x2="212" y2="188" gradientUnits="userSpaceOnUse">
      <stop stop-color="#E79260"/>
      <stop offset="1" stop-color="#BF643D"/>
    </linearGradient>
    <filter id="shadow" x="44" y="34" width="170" height="188" filterUnits="userSpaceOnUse" color-interpolation-filters="sRGB">
      <feOffset dy="6"/>
      <feGaussianBlur stdDeviation="6"/>
      <feColorMatrix type="matrix" values="0 0 0 0 0.223529 0 0 0 0 0.168627 0 0 0 0 0.137255 0 0 0 0.16 0"/>
      <feBlend in2="SourceGraphic" result="shape"/>
    </filter>
  </defs>
  <rect x="16" y="16" width="224" height="224" rx="52" fill="url(#bg)"/>
  <circle cx="56" cy="56" r="10" fill="#F6E4C4" opacity="0.8"/>
  <circle cx="204" cy="198" r="14" fill="#F4DEC2" opacity="0.75"/>
  <g filter="url(#shadow)">
    <rect x="62" y="50" width="132" height="156" rx="22" fill="url(#paper)"/>
    <path d="M168 50H194V76L168 50Z" fill="#E4C594"/>
    <rect x="78" y="38" width="16" height="28" rx="8" fill="#BF643D"/>
    <rect x="120" y="38" width="16" height="28" rx="8" fill="#D67846"/>
    <rect x="162" y="38" width="16" height="28" rx="8" fill="#BF643D"/>
    <rect x="84" y="86" width="74" height="10" rx="5" fill="#40332A" opacity="0.92"/>
    <rect x="84" y="106" width="90" height="9" rx="4.5" fill="#7A6558" opacity="0.42"/>
    <rect x="84" y="124" width="64" height="9" rx="4.5" fill="#D67846" opacity="0.82"/>
    <rect x="84" y="148" width="80" height="9" rx="4.5" fill="#7A6558" opacity="0.34"/>
    <rect x="84" y="166" width="54" height="9" rx="4.5" fill="#7A6558" opacity="0.34"/>
  </g>
  <circle cx="186" cy="152" r="16" fill="url(#accent)"/>
  <path d="M196 90L200.5 101.5L212 106L200.5 110.5L196 122L191.5 110.5L180 106L191.5 101.5L196 90Z" fill="#F8E6BE"/>
  <circle cx="176" cy="94" r="4" fill="#D67846"/>
  <circle cx="211" cy="140" r="5" fill="#D67846"/>
  <path d="M181 151.5L185.5 156L192.5 148" stroke="#FFF7EA" stroke-width="4.5" stroke-linecap="round" stroke-linejoin="round"/>
</svg>
