<svg width="64" height="64" viewBox="0 0 64 64" fill="none" xmlns="http://www.w3.org/2000/svg">
  <rect x="4" y="4" width="56" height="56" rx="14" fill="#F6E7CC"/>
  <rect x="17" y="13" width="30" height="38" rx="6" fill="#FFF8EA"/>
  <path d="M41 13H47V19L41 13Z" fill="#E4C594"/>
  <rect x="21" y="10" width="4" height="8" rx="2" fill="#BF643D"/>
  <rect x="30" y="10" width="4" height="8" rx="2" fill="#D67846"/>
  <rect x="39" y="10" width="4" height="8" rx="2" fill="#BF643D"/>
  <rect x="21.5" y="23" width="17" height="3.5" rx="1.75" fill="#40332A"/>
  <rect x="21.5" y="29.5" width="21" height="3" rx="1.5" fill="#8B7769" opacity="0.45"/>
  <rect x="21.5" y="35.5" width="15" height="3" rx="1.5" fill="#D67846"/>
  <circle cx="45.5" cy="37.5" r="6.5" fill="#C76A3B"/>
  <path d="M47.5 17L49 21L53 22.5L49 24L47.5 28L46 24L42 22.5L46 21L47.5 17Z" fill="#F8E6BE"/>
  <path d="M43.5 37.5L45 39L48 36" stroke="#FFF7EA" stroke-width="1.8" stroke-linecap="round" stroke-linejoin="round"/>
</svg>
